# xmcd
#
# Track frame offsets:
#	150
#	11310
#	22627
#	42232
#	55905
#	68657
#	89175
#	104152
#	123220
#	141615
#	157195
#	170120
#	189647
#	208082
#	225677
#
# Disc length: 3213 seconds
#
# Revision: 0
# Processed by: cddbd v1.5.2PL0 Copyright (c) Steve Scherf et al.
# Submitted via: audiograbber 1.83.01
#
DISCID=d90c8b0f
DTITLE=Various Artist - Hillbilly Hardcore
DYEAR=1997
DGENRE=Country
TTITLE0=Alan Jackson - Tall Tall Trees
TTITLE1=BR5-49 - Cherokee Boogie
TTITLE2=Blackhawk - Big Guitar
TTITLE3=Michelle Wright - Crank My Tractor
TTITLE4=Brooks and Dunn - Redneck Rhythm and Blues
TTITLE5=Pam Tillis - Betty's Got A Bass Boat
TTITLE6=Lee Roy Parnell - We All Get Lucky Sometimes
TTITLE7=Diamond Rio - It's All In Your Head
TTITLE8=BR5-49 - Chains Of This Town
TTITLE9=Lee Roy Parnell - If The House Is Rockin'
TTITLE10=Pam Tillis - Mi Vida Loca (My Crazy Life)
TTITLE11=Brooks and Dunn - Mama Don't Get Dressed Up For Nothin'
TTITLE12=Alan Jackson - Chattahoochee
TTITLE13=The Tractors - Baby Likes To Rock It
TTITLE14=Michelle Wright - You Owe Me
EXTD=
EXTT0=
EXTT1=
EXTT2=
EXTT3=
EXTT4=
EXTT5=
EXTT6=
EXTT7=
EXTT8=
EXTT9=
EXTT10=
EXTT11=
EXTT12=
EXTT13=
EXTT14=
PLAYORDER=
